<svg xmlns="http://www.w3.org/2000/svg" width="250" height="79" viewBox="0 0 250 79" fill="none">
  <g clip-path="url(#clip0_111_33)">
    <path d="M173.796 13.0366C173.796 13.0366 179.22 4.22567 180.5 0.909973C180.5 0.909973 170.142 8.7007 166.045 10.8802C161.157 13.4772 158.387 15.8422 154.755 17.7435C152.428 18.9724 147.307 21.6389 147.307 21.6389C147.307 21.6389 150.1 19.2507 149.169 16.8161C148.238 14.3815 145.258 14.9611 145.258 14.9611C145.258 14.9611 149.681 16.0045 148.168 18.6246C146.655 21.2447 137.321 31.0063 132.851 31.3309C130.524 31.5164 133.387 24.885 132.619 22.0563C132.339 21.036 130.64 20.9433 129.988 17.4653C129.337 20.9433 127.661 21.0129 127.358 22.0563C126.59 24.885 129.453 31.5164 127.125 31.3309C122.656 31.0063 113.322 21.2447 111.809 18.6246C110.296 16.0045 114.718 14.9611 114.718 14.9611C114.718 14.9611 111.739 14.3815 110.808 16.8161C109.877 19.2507 112.67 21.6389 112.67 21.6389C112.67 21.6389 107.549 18.9724 105.221 17.7435C101.613 15.8422 98.8667 13.4772 93.9552 10.8802C89.8584 8.7007 79.5 0.909973 79.5 0.909973C80.7802 4.22567 86.2038 13.0366 86.2038 13.0366L82.8286 11.4136C84.1089 14.4974 88.066 19.9463 88.066 19.9463L84.5046 19.1811C86.3202 22.2649 91.0921 25.627 91.0921 25.627L89.8584 25.9284C89.9282 27.4356 97.1442 35.0408 102.847 39.2144C108.55 43.388 117 44.501 117 44.501C112.693 48.2804 103.545 54.1234 105.71 53.9379C107.875 53.7525 111.367 54.8886 114.858 55.4683C118.35 56.0479 120.445 55.4683 122.772 57.5087C125.1 59.5491 126.148 64.001 126.334 68.7079C126.52 73.4148 127.73 78.91 127.73 78.91C127.73 78.91 126.846 71.5366 127.055 69.7976C127.265 68.0586 127.451 64.0473 127.102 61.0331C126.753 58.0188 128.615 57.2536 128.615 57.2536C128.615 57.2536 128.848 56.9522 128.662 58.8303C128.475 60.6853 129.011 59.6419 128.731 62.146C128.452 64.6502 129.011 63.6068 128.778 65.0444C128.545 66.5051 129.243 69.2875 129.686 68.8238C130.128 68.3601 129.313 63.3749 129.686 61.4041C130.058 59.4332 129.709 59.5491 129.43 58.2043C129.127 56.8595 130.012 56.6972 130.012 56.6972C130.012 56.6972 130.896 56.8827 130.594 58.2043C130.291 59.5491 129.965 59.4332 130.338 61.4041C130.71 63.3749 129.895 68.3601 130.338 68.8238C130.78 69.2875 131.478 66.5051 131.245 65.0444C131.013 63.5836 131.571 64.627 131.292 62.146C131.013 59.6419 131.548 60.6853 131.362 58.8303C131.176 56.9754 131.408 57.2536 131.408 57.2536C131.408 57.2536 133.27 58.0188 132.921 61.0331C132.572 64.0473 132.782 68.0586 132.968 69.7976C133.154 71.5366 132.293 78.91 132.293 78.91C132.293 78.91 133.527 73.3916 133.689 68.7079C133.852 64.0242 134.923 59.5491 137.251 57.5087C139.579 55.4683 141.674 56.0479 145.165 55.4683C148.657 54.8886 152.148 53.7756 154.313 53.9379C156.478 54.1234 147.33 48.2804 143.024 44.501C143.024 44.501 151.473 43.388 157.176 39.2144C162.879 35.0408 170.095 27.4356 170.165 25.9284L168.931 25.627C168.931 25.627 173.703 22.2649 175.519 19.1811L171.957 19.9463C171.957 19.9463 175.914 14.4974 177.195 11.4136L173.796 13.0366Z" fill="#243B53"/>
    <path d="M249.35 39.6408C248.734 39.2167 247.386 38.4173 245.804 38.4173C243.639 38.4173 231.269 38.2053 230.62 38.2053C229.97 38.2053 230.187 39.0536 229.105 39.0536C228.022 39.0536 228.022 38.2053 227.373 38.2053C226.774 38.2053 225.292 38.9067 224.21 39.0372C224.16 39.0372 224.143 39.0699 224.093 39.0862H200.335C199.752 38.5968 199.202 38.0748 198.736 37.5364C198.453 37.2102 198.32 36.786 197.97 36.5903C197.621 36.3619 197.254 36.1661 196.638 36.0193L196.489 36.0846C196.322 36.6881 196.472 37.2265 196.722 37.6669C196.971 38.1237 197.488 38.3031 197.904 38.5478C198.287 38.7762 198.703 38.9557 199.102 39.1025H195.889C194.274 38.1726 193.991 36.1987 192.36 35.693C190.195 35.0405 185.5 34.91 185.5 34.91L191.078 37.5364C187.848 38.0748 187.848 39.9182 187.848 39.9182C187.848 39.9182 187.848 41.7615 191.078 42.2836L185.5 44.91C185.5 44.91 190.195 44.7795 192.36 44.127C193.991 43.6213 194.274 41.6474 195.889 40.7338H199.435C198.903 40.8969 198.387 41.109 197.887 41.4027C197.471 41.631 196.955 41.8268 196.722 42.2836C196.472 42.7077 196.322 43.2461 196.489 43.8496L196.638 43.9312C197.254 43.7681 197.621 43.5723 197.97 43.3602C198.32 43.1482 198.453 42.724 198.736 42.4141C199.252 41.8431 199.835 41.2722 200.468 40.7338H224.093C224.126 40.7501 224.16 40.7828 224.193 40.7828C225.275 40.9133 226.774 41.6147 227.356 41.6147C228.006 41.6147 228.006 40.7664 229.088 40.7664C230.17 40.7664 229.954 41.6147 230.603 41.6147C231.252 41.6147 243.623 41.4027 245.787 41.4027C247.369 41.4027 248.717 40.6033 249.334 40.1792C249.55 40.0487 249.55 39.7713 249.35 39.6408Z" fill="#243B53"/>
    <path d="M0.647825 40.1792C1.26385 40.6033 2.61244 41.4027 4.19413 41.4027C6.35854 41.4027 18.729 41.6147 19.3783 41.6147C20.0276 41.6147 19.8112 40.7664 20.8934 40.7664C21.9756 40.7664 21.9756 41.6147 22.6249 41.6147C23.2243 41.6147 24.7061 40.9133 25.7883 40.7828C25.8382 40.7828 25.8549 40.7501 25.9048 40.7338H49.6634C50.2461 41.2232 50.7956 41.7452 51.2617 42.2836C51.5448 42.6098 51.678 43.034 52.0276 43.2297C52.3772 43.4581 52.7435 43.6539 53.3595 43.8007L53.5094 43.7354C53.6759 43.1319 53.526 42.5935 53.2763 42.1531C53.0266 41.6963 52.5104 41.5169 52.0942 41.2722C51.7113 41.0438 51.295 40.8643 50.8954 40.7175H54.1088C55.7238 41.6474 56.0068 43.6213 57.6384 44.127C59.8028 44.7795 64.4979 44.91 64.4979 44.91L58.9204 42.2836C62.1504 41.7452 62.1504 39.9018 62.1504 39.9018C62.1504 39.9018 62.1504 38.0585 58.9204 37.5364L64.4979 34.91C64.4979 34.91 59.8028 35.0405 57.6384 35.693C56.0068 36.1987 55.7238 38.1726 54.1088 39.0862H50.5625C51.0952 38.9231 51.6114 38.711 52.1108 38.4173C52.5271 38.189 53.0432 37.9932 53.2763 37.5364C53.526 37.1123 53.6759 36.5739 53.5094 35.9704L53.3595 35.8888C52.7435 36.0519 52.3772 36.2477 52.0276 36.4598C51.678 36.6718 51.5448 37.096 51.2617 37.4059C50.7456 37.9769 50.1629 38.5478 49.5302 39.0862H25.9048C25.8715 39.0699 25.8382 39.0372 25.8049 39.0372C24.7227 38.9067 23.2243 38.2053 22.6415 38.2053C21.9922 38.2053 21.9922 39.0536 20.91 39.0536C19.8278 39.0536 20.0442 38.2053 19.3949 38.2053C18.7456 38.2053 6.3752 38.4173 4.21078 38.4173C2.6291 38.4173 1.2805 39.2167 0.664472 39.6408C0.448034 39.7713 0.448034 40.0487 0.647825 40.1792Z" fill="#243B53"/>
  </g>
  <defs>
    <clipPath id="clip0_111_33">
      <rect width="249" height="78" fill="white" transform="translate(0.5 0.909973)"/>
    </clipPath>
  </defs>
</svg>